<svg xmlns="http://www.w3.org/2000/svg" xmlns:xlink="http://www.w3.org/1999/xlink" width="500" zoomAndPan="magnify" viewBox="0 0 375 374.999991" height="500" preserveAspectRatio="xMidYMid meet" version="1.0"><defs><clipPath id="a092f75026"><path d="M 146 115.367188 L 245.488281 115.367188 L 245.488281 254.296875 L 146 254.296875 Z M 146 115.367188 " clip-rule="nonzero"/></clipPath><clipPath id="dba3bf236d"><path d="M 173.820312 190.585938 L 210.914062 190.585938 L 210.914062 227.683594 L 173.820312 227.683594 Z M 173.820312 190.585938 " clip-rule="nonzero"/></clipPath><clipPath id="4c11dbf090"><path d="M 173.089844 209.113281 C 173.089844 214.222656 175.121094 219.121094 178.730469 222.730469 C 182.34375 226.339844 187.238281 228.371094 192.347656 228.371094 C 197.453125 228.371094 202.351562 226.339844 205.960938 222.730469 C 209.574219 219.121094 211.601562 214.222656 211.601562 209.113281 C 211.601562 204.007812 209.574219 199.109375 205.960938 195.5 C 202.351562 191.886719 197.453125 189.859375 192.347656 189.859375 C 187.238281 189.859375 182.34375 191.886719 178.730469 195.5 C 175.121094 199.109375 173.089844 204.007812 173.089844 209.113281 Z M 173.089844 209.113281 " clip-rule="nonzero"/></clipPath><clipPath id="2455593b55"><path d="M 192.347656 190.730469 C 197.222656 190.730469 201.898438 192.667969 205.34375 196.117188 C 208.792969 199.5625 210.730469 204.238281 210.730469 209.113281 C 210.730469 213.988281 208.792969 218.664062 205.34375 222.113281 C 201.898438 225.5625 197.222656 227.496094 192.347656 227.496094 C 187.472656 227.496094 182.796875 225.5625 179.347656 222.113281 C 175.902344 218.664062 173.964844 213.988281 173.964844 209.113281 C 173.964844 204.238281 175.902344 199.5625 179.347656 196.117188 C 182.796875 192.667969 187.472656 190.730469 192.347656 190.730469 Z M 192.347656 190.730469 " clip-rule="nonzero"/></clipPath><clipPath id="236f1aaf6e"><path d="M 173.089844 189.859375 L 211.636719 189.859375 L 211.636719 228.40625 L 173.089844 228.40625 Z M 173.089844 189.859375 " clip-rule="nonzero"/></clipPath><clipPath id="e9e75e58bd"><path d="M 173.089844 209.113281 C 173.089844 214.222656 175.121094 219.121094 178.730469 222.730469 C 182.34375 226.339844 187.238281 228.371094 192.347656 228.371094 C 197.453125 228.371094 202.351562 226.339844 205.960938 222.730469 C 209.574219 219.121094 211.601562 214.222656 211.601562 209.113281 C 211.601562 204.007812 209.574219 199.109375 205.960938 195.5 C 202.351562 191.886719 197.453125 189.859375 192.347656 189.859375 C 187.238281 189.859375 182.34375 191.886719 178.730469 195.5 C 175.121094 199.109375 173.089844 204.007812 173.089844 209.113281 Z M 173.089844 209.113281 " clip-rule="nonzero"/></clipPath><clipPath id="60148f46ca"><path d="M 173.089844 209.113281 C 173.089844 214.21875 175.121094 219.117188 178.730469 222.726562 C 182.339844 226.335938 187.238281 228.367188 192.34375 228.367188 C 197.449219 228.367188 202.347656 226.335938 205.957031 222.726562 C 209.570312 219.117188 211.597656 214.21875 211.597656 209.113281 C 211.597656 204.003906 209.570312 199.109375 205.957031 195.496094 C 202.347656 191.886719 197.449219 189.859375 192.34375 189.859375 C 187.238281 189.859375 182.339844 191.886719 178.730469 195.496094 C 175.121094 199.109375 173.089844 204.003906 173.089844 209.113281 Z M 173.089844 209.113281 " clip-rule="nonzero"/></clipPath><clipPath id="8ee7a789bf"><path d="M 220 98 L 274 98 L 274 141 L 220 141 Z M 220 98 " clip-rule="nonzero"/></clipPath><clipPath id="069826d841"><path d="M 220.796875 122.417969 L 263.238281 90.257812 L 276.828125 108.191406 L 234.386719 140.351562 Z M 220.796875 122.417969 " clip-rule="nonzero"/></clipPath><clipPath id="6b32534645"><path d="M 220.457031 122.675781 L 262.902344 90.515625 L 276.941406 109.046875 L 234.5 141.207031 Z M 220.457031 122.675781 " clip-rule="nonzero"/></clipPath><clipPath id="7daa7d8300"><path d="M 198.925781 138.988281 L 262.886719 90.523438 L 276.929688 109.054688 L 212.964844 157.519531 Z M 198.925781 138.988281 " clip-rule="nonzero"/></clipPath><clipPath id="3b30dc9791"><path d="M 223 132 L 242 132 L 242 141 L 223 141 Z M 223 132 " clip-rule="nonzero"/></clipPath><clipPath id="9426cebd75"><path d="M 220.796875 122.417969 L 263.238281 90.257812 L 276.828125 108.191406 L 234.386719 140.351562 Z M 220.796875 122.417969 " clip-rule="nonzero"/></clipPath><clipPath id="97f99400a7"><path d="M 220.457031 122.675781 L 262.902344 90.515625 L 276.941406 109.046875 L 234.5 141.207031 Z M 220.457031 122.675781 " clip-rule="nonzero"/></clipPath><clipPath id="9e487ca2b7"><path d="M 198.925781 138.988281 L 262.886719 90.523438 L 276.929688 109.054688 L 212.964844 157.519531 Z M 198.925781 138.988281 " clip-rule="nonzero"/></clipPath><clipPath id="0948e77ff9"><path d="M 220 129 L 236 129 L 236 141 L 220 141 Z M 220 129 " clip-rule="nonzero"/></clipPath><clipPath id="7581285de3"><path d="M 220.796875 122.417969 L 263.238281 90.257812 L 276.828125 108.191406 L 234.386719 140.351562 Z M 220.796875 122.417969 " clip-rule="nonzero"/></clipPath><clipPath id="0bb6c57586"><path d="M 220.457031 122.675781 L 262.902344 90.515625 L 276.941406 109.046875 L 234.5 141.207031 Z M 220.457031 122.675781 " clip-rule="nonzero"/></clipPath><clipPath id="cac9d0813c"><path d="M 198.925781 138.988281 L 262.886719 90.523438 L 276.929688 109.054688 L 212.964844 157.519531 Z M 198.925781 138.988281 " clip-rule="nonzero"/></clipPath><clipPath id="3ad039ee8f"><path d="M 220 120 L 239 120 L 239 141 L 220 141 Z M 220 120 " clip-rule="nonzero"/></clipPath><clipPath id="c3a9014bfa"><path d="M 220.796875 122.417969 L 263.238281 90.257812 L 276.828125 108.191406 L 234.386719 140.351562 Z M 220.796875 122.417969 " clip-rule="nonzero"/></clipPath><clipPath id="f932323250"><path d="M 220.457031 122.675781 L 262.902344 90.515625 L 276.941406 109.046875 L 234.5 141.207031 Z M 220.457031 122.675781 " clip-rule="nonzero"/></clipPath><clipPath id="54dae33f41"><path d="M 198.925781 138.988281 L 262.886719 90.523438 L 276.929688 109.054688 L 212.964844 157.519531 Z M 198.925781 138.988281 " clip-rule="nonzero"/></clipPath><clipPath id="e7c4bc3a9d"><path d="M 220 110 L 237 110 L 237 137 L 220 137 Z M 220 110 " clip-rule="nonzero"/></clipPath><clipPath id="c7ed020d0a"><path d="M 220.796875 122.417969 L 263.238281 90.257812 L 276.828125 108.191406 L 234.386719 140.351562 Z M 220.796875 122.417969 " clip-rule="nonzero"/></clipPath><clipPath id="df32f17cef"><path d="M 220.457031 122.675781 L 262.902344 90.515625 L 276.941406 109.046875 L 234.5 141.207031 Z M 220.457031 122.675781 " clip-rule="nonzero"/></clipPath><clipPath id="854455e180"><path d="M 198.925781 138.988281 L 262.886719 90.523438 L 276.929688 109.054688 L 212.964844 157.519531 Z M 198.925781 138.988281 " clip-rule="nonzero"/></clipPath><clipPath id="56e061e19b"><path d="M 228 107 L 245 107 L 245 127 L 228 127 Z M 228 107 " clip-rule="nonzero"/></clipPath><clipPath id="6f2c4c3ad5"><path d="M 220.796875 122.417969 L 263.238281 90.257812 L 276.828125 108.191406 L 234.386719 140.351562 Z M 220.796875 122.417969 " clip-rule="nonzero"/></clipPath><clipPath id="9b2997796b"><path d="M 220.457031 122.675781 L 262.902344 90.515625 L 276.941406 109.046875 L 234.5 141.207031 Z M 220.457031 122.675781 " clip-rule="nonzero"/></clipPath><clipPath id="5cfa17bf62"><path d="M 198.925781 138.988281 L 262.886719 90.523438 L 276.929688 109.054688 L 212.964844 157.519531 Z M 198.925781 138.988281 " clip-rule="nonzero"/></clipPath><clipPath id="14fd983f01"><path d="M 224 112 L 244 112 L 244 134 L 224 134 Z M 224 112 " clip-rule="nonzero"/></clipPath><clipPath id="fe15663d0e"><path d="M 220.796875 122.417969 L 263.238281 90.257812 L 276.828125 108.191406 L 234.386719 140.351562 Z M 220.796875 122.417969 " clip-rule="nonzero"/></clipPath><clipPath id="f496e948ac"><path d="M 220.457031 122.675781 L 262.902344 90.515625 L 276.941406 109.046875 L 234.5 141.207031 Z M 220.457031 122.675781 " clip-rule="nonzero"/></clipPath><clipPath id="34897204b5"><path d="M 198.925781 138.988281 L 262.886719 90.523438 L 276.929688 109.054688 L 212.964844 157.519531 Z M 198.925781 138.988281 " clip-rule="nonzero"/></clipPath><clipPath id="c1eae2b8e3"><path d="M 231 104 L 274 104 L 274 134 L 231 134 Z M 231 104 " clip-rule="nonzero"/></clipPath><clipPath id="a3c8feba6a"><path d="M 220.796875 122.417969 L 263.238281 90.257812 L 276.828125 108.191406 L 234.386719 140.351562 Z M 220.796875 122.417969 " clip-rule="nonzero"/></clipPath><clipPath id="b130fd5194"><path d="M 220.457031 122.675781 L 262.902344 90.515625 L 276.941406 109.046875 L 234.5 141.207031 Z M 220.457031 122.675781 " clip-rule="nonzero"/></clipPath><clipPath id="9311e5585d"><path d="M 198.925781 138.988281 L 262.886719 90.523438 L 276.929688 109.054688 L 212.964844 157.519531 Z M 198.925781 138.988281 " clip-rule="nonzero"/></clipPath><clipPath id="d92a6dc4fc"><path d="M 250 108 L 264 108 L 264 128 L 250 128 Z M 250 108 " clip-rule="nonzero"/></clipPath><clipPath id="683497561f"><path d="M 220.796875 122.417969 L 263.238281 90.257812 L 276.828125 108.191406 L 234.386719 140.351562 Z M 220.796875 122.417969 " clip-rule="nonzero"/></clipPath><clipPath id="16a2cfcb47"><path d="M 220.457031 122.675781 L 262.902344 90.515625 L 276.941406 109.046875 L 234.5 141.207031 Z M 220.457031 122.675781 " clip-rule="nonzero"/></clipPath><clipPath id="ee31a1e5c5"><path d="M 198.925781 138.988281 L 262.886719 90.523438 L 276.929688 109.054688 L 212.964844 157.519531 Z M 198.925781 138.988281 " clip-rule="nonzero"/></clipPath><clipPath id="962386f661"><path d="M 247 110 L 270 110 L 270 130 L 247 130 Z M 247 110 " clip-rule="nonzero"/></clipPath><clipPath id="53d4ed02c3"><path d="M 220.796875 122.417969 L 263.238281 90.257812 L 276.828125 108.191406 L 234.386719 140.351562 Z M 220.796875 122.417969 " clip-rule="nonzero"/></clipPath><clipPath id="59f704606f"><path d="M 220.457031 122.675781 L 262.902344 90.515625 L 276.941406 109.046875 L 234.5 141.207031 Z M 220.457031 122.675781 " clip-rule="nonzero"/></clipPath><clipPath id="b6181bbe28"><path d="M 198.925781 138.988281 L 262.886719 90.523438 L 276.929688 109.054688 L 212.964844 157.519531 Z M 198.925781 138.988281 " clip-rule="nonzero"/></clipPath><clipPath id="733f539b7a"><path d="M 246 99 L 268 99 L 268 121 L 246 121 Z M 246 99 " clip-rule="nonzero"/></clipPath><clipPath id="08b3033b18"><path d="M 220.796875 122.417969 L 263.238281 90.257812 L 276.828125 108.191406 L 234.386719 140.351562 Z M 220.796875 122.417969 " clip-rule="nonzero"/></clipPath><clipPath id="f9b0956d54"><path d="M 220.457031 122.675781 L 262.902344 90.515625 L 276.941406 109.046875 L 234.5 141.207031 Z M 220.457031 122.675781 " clip-rule="nonzero"/></clipPath><clipPath id="93fb16f97f"><path d="M 198.925781 138.988281 L 262.886719 90.523438 L 276.929688 109.054688 L 212.964844 157.519531 Z M 198.925781 138.988281 " clip-rule="nonzero"/></clipPath><clipPath id="309b5ef63d"><path d="M 248 96 L 262 96 L 262 116 L 248 116 Z M 248 96 " clip-rule="nonzero"/></clipPath><clipPath id="a7bb51ef18"><path d="M 220.796875 122.417969 L 263.238281 90.257812 L 276.828125 108.191406 L 234.386719 140.351562 Z M 220.796875 122.417969 " clip-rule="nonzero"/></clipPath><clipPath id="5791652947"><path d="M 220.457031 122.675781 L 262.902344 90.515625 L 276.941406 109.046875 L 234.5 141.207031 Z M 220.457031 122.675781 " clip-rule="nonzero"/></clipPath><clipPath id="f7745dc92d"><path d="M 198.925781 138.988281 L 262.886719 90.523438 L 276.929688 109.054688 L 212.964844 157.519531 Z M 198.925781 138.988281 " clip-rule="nonzero"/></clipPath><clipPath id="2cfcd36abd"><path d="M 249 100 L 262 100 L 262 112 L 249 112 Z M 249 100 " clip-rule="nonzero"/></clipPath><clipPath id="f1147b5206"><path d="M 220.796875 122.417969 L 263.238281 90.257812 L 276.828125 108.191406 L 234.386719 140.351562 Z M 220.796875 122.417969 " clip-rule="nonzero"/></clipPath><clipPath id="65b2b42249"><path d="M 220.457031 122.675781 L 262.902344 90.515625 L 276.941406 109.046875 L 234.5 141.207031 Z M 220.457031 122.675781 " clip-rule="nonzero"/></clipPath><clipPath id="8ef0684f0c"><path d="M 198.925781 138.988281 L 262.886719 90.523438 L 276.929688 109.054688 L 212.964844 157.519531 Z M 198.925781 138.988281 " clip-rule="nonzero"/></clipPath><clipPath id="96735867ff"><path d="M 227 108 L 239 108 L 239 120 L 227 120 Z M 227 108 " clip-rule="nonzero"/></clipPath><clipPath id="26ca62028e"><path d="M 220.796875 122.417969 L 263.238281 90.257812 L 276.828125 108.191406 L 234.386719 140.351562 Z M 220.796875 122.417969 " clip-rule="nonzero"/></clipPath><clipPath id="9b32ed8b9b"><path d="M 220.457031 122.675781 L 262.902344 90.515625 L 276.941406 109.046875 L 234.5 141.207031 Z M 220.457031 122.675781 " clip-rule="nonzero"/></clipPath><clipPath id="d518487c4d"><path d="M 198.925781 138.988281 L 262.886719 90.523438 L 276.929688 109.054688 L 212.964844 157.519531 Z M 198.925781 138.988281 " clip-rule="nonzero"/></clipPath><clipPath id="1ac9f870fd"><path d="M 235 106 L 247 106 L 247 118 L 235 118 Z M 235 106 " clip-rule="nonzero"/></clipPath><clipPath id="6a7551d9da"><path d="M 220.796875 122.417969 L 263.238281 90.257812 L 276.828125 108.191406 L 234.386719 140.351562 Z M 220.796875 122.417969 " clip-rule="nonzero"/></clipPath><clipPath id="7a45c99638"><path d="M 220.457031 122.675781 L 262.902344 90.515625 L 276.941406 109.046875 L 234.5 141.207031 Z M 220.457031 122.675781 " clip-rule="nonzero"/></clipPath><clipPath id="a91f9b67a6"><path d="M 198.925781 138.988281 L 262.886719 90.523438 L 276.929688 109.054688 L 212.964844 157.519531 Z M 198.925781 138.988281 " clip-rule="nonzero"/></clipPath><clipPath id="d2aabb9c59"><path d="M 234 111 L 245 111 L 245 123 L 234 123 Z M 234 111 " clip-rule="nonzero"/></clipPath><clipPath id="f78281284c"><path d="M 220.796875 122.417969 L 263.238281 90.257812 L 276.828125 108.191406 L 234.386719 140.351562 Z M 220.796875 122.417969 " clip-rule="nonzero"/></clipPath><clipPath id="40900ba43d"><path d="M 220.457031 122.675781 L 262.902344 90.515625 L 276.941406 109.046875 L 234.5 141.207031 Z M 220.457031 122.675781 " clip-rule="nonzero"/></clipPath><clipPath id="6134122aa8"><path d="M 198.925781 138.988281 L 262.886719 90.523438 L 276.929688 109.054688 L 212.964844 157.519531 Z M 198.925781 138.988281 " clip-rule="nonzero"/></clipPath><clipPath id="07eb401821"><path d="M 229 119 L 240 119 L 240 131 L 229 131 Z M 229 119 " clip-rule="nonzero"/></clipPath><clipPath id="3a89a279f3"><path d="M 220.796875 122.417969 L 263.238281 90.257812 L 276.828125 108.191406 L 234.386719 140.351562 Z M 220.796875 122.417969 " clip-rule="nonzero"/></clipPath><clipPath id="f7754a7e68"><path d="M 220.457031 122.675781 L 262.902344 90.515625 L 276.941406 109.046875 L 234.5 141.207031 Z M 220.457031 122.675781 " clip-rule="nonzero"/></clipPath><clipPath id="58f29c301f"><path d="M 198.925781 138.988281 L 262.886719 90.523438 L 276.929688 109.054688 L 212.964844 157.519531 Z M 198.925781 138.988281 " clip-rule="nonzero"/></clipPath><clipPath id="a7839c5ef0"><path d="M 226 128 L 238 128 L 238 140 L 226 140 Z M 226 128 " clip-rule="nonzero"/></clipPath><clipPath id="55731a5732"><path d="M 220.796875 122.417969 L 263.238281 90.257812 L 276.828125 108.191406 L 234.386719 140.351562 Z M 220.796875 122.417969 " clip-rule="nonzero"/></clipPath><clipPath id="62a5445708"><path d="M 220.457031 122.675781 L 262.902344 90.515625 L 276.941406 109.046875 L 234.5 141.207031 Z M 220.457031 122.675781 " clip-rule="nonzero"/></clipPath><clipPath id="41561affeb"><path d="M 198.925781 138.988281 L 262.886719 90.523438 L 276.929688 109.054688 L 212.964844 157.519531 Z M 198.925781 138.988281 " clip-rule="nonzero"/></clipPath><clipPath id="10e6eda58b"><path d="M 225 132 L 237 132 L 237 141 L 225 141 Z M 225 132 " clip-rule="nonzero"/></clipPath><clipPath id="ef8d7b0f43"><path d="M 220.796875 122.417969 L 263.238281 90.257812 L 276.828125 108.191406 L 234.386719 140.351562 Z M 220.796875 122.417969 " clip-rule="nonzero"/></clipPath><clipPath id="365e61fc8f"><path d="M 220.457031 122.675781 L 262.902344 90.515625 L 276.941406 109.046875 L 234.5 141.207031 Z M 220.457031 122.675781 " clip-rule="nonzero"/></clipPath><clipPath id="2d25fe16ac"><path d="M 198.925781 138.988281 L 262.886719 90.523438 L 276.929688 109.054688 L 212.964844 157.519531 Z M 198.925781 138.988281 " clip-rule="nonzero"/></clipPath><clipPath id="c0d4182477"><path d="M 232 130 L 243 130 L 243 141 L 232 141 Z M 232 130 " clip-rule="nonzero"/></clipPath><clipPath id="7f15301bb3"><path d="M 220.796875 122.417969 L 263.238281 90.257812 L 276.828125 108.191406 L 234.386719 140.351562 Z M 220.796875 122.417969 " clip-rule="nonzero"/></clipPath><clipPath id="464a0273b2"><path d="M 220.457031 122.675781 L 262.902344 90.515625 L 276.941406 109.046875 L 234.5 141.207031 Z M 220.457031 122.675781 " clip-rule="nonzero"/></clipPath><clipPath id="346507a1b3"><path d="M 198.925781 138.988281 L 262.886719 90.523438 L 276.929688 109.054688 L 212.964844 157.519531 Z M 198.925781 138.988281 " clip-rule="nonzero"/></clipPath><clipPath id="6c65d90011"><path d="M 254 107 L 266 107 L 266 119 L 254 119 Z M 254 107 " clip-rule="nonzero"/></clipPath><clipPath id="bffcbc6bdf"><path d="M 220.796875 122.417969 L 263.238281 90.257812 L 276.828125 108.191406 L 234.386719 140.351562 Z M 220.796875 122.417969 " clip-rule="nonzero"/></clipPath><clipPath id="3aa2273a1b"><path d="M 220.457031 122.675781 L 262.902344 90.515625 L 276.941406 109.046875 L 234.5 141.207031 Z M 220.457031 122.675781 " clip-rule="nonzero"/></clipPath><clipPath id="dce4b59f5d"><path d="M 198.925781 138.988281 L 262.886719 90.523438 L 276.929688 109.054688 L 212.964844 157.519531 Z M 198.925781 138.988281 " clip-rule="nonzero"/></clipPath><clipPath id="133c52a97e"><path d="M 260 109 L 272 109 L 272 121 L 260 121 Z M 260 109 " clip-rule="nonzero"/></clipPath><clipPath id="0296f996b9"><path d="M 220.796875 122.417969 L 263.238281 90.257812 L 276.828125 108.191406 L 234.386719 140.351562 Z M 220.796875 122.417969 " clip-rule="nonzero"/></clipPath><clipPath id="ad8dd590b6"><path d="M 220.457031 122.675781 L 262.902344 90.515625 L 276.941406 109.046875 L 234.5 141.207031 Z M 220.457031 122.675781 " clip-rule="nonzero"/></clipPath><clipPath id="cc9051881a"><path d="M 198.925781 138.988281 L 262.886719 90.523438 L 276.929688 109.054688 L 212.964844 157.519531 Z M 198.925781 138.988281 " clip-rule="nonzero"/></clipPath><clipPath id="91d6462107"><path d="M 264 102 L 276 102 L 276 114 L 264 114 Z M 264 102 " clip-rule="nonzero"/></clipPath><clipPath id="c88ec819e9"><path d="M 220.796875 122.417969 L 263.238281 90.257812 L 276.828125 108.191406 L 234.386719 140.351562 Z M 220.796875 122.417969 " clip-rule="nonzero"/></clipPath><clipPath id="f8a15d61d4"><path d="M 220.457031 122.675781 L 262.902344 90.515625 L 276.941406 109.046875 L 234.5 141.207031 Z M 220.457031 122.675781 " clip-rule="nonzero"/></clipPath><clipPath id="a95e11c5a0"><path d="M 198.925781 138.988281 L 262.886719 90.523438 L 276.929688 109.054688 L 212.964844 157.519531 Z M 198.925781 138.988281 " clip-rule="nonzero"/></clipPath><clipPath id="ae6904e044"><path d="M 264 96 L 276 96 L 276 108 L 264 108 Z M 264 96 " clip-rule="nonzero"/></clipPath><clipPath id="7082d7880f"><path d="M 220.796875 122.417969 L 263.238281 90.257812 L 276.828125 108.191406 L 234.386719 140.351562 Z M 220.796875 122.417969 " clip-rule="nonzero"/></clipPath><clipPath id="307cc36648"><path d="M 220.457031 122.675781 L 262.902344 90.515625 L 276.941406 109.046875 L 234.5 141.207031 Z M 220.457031 122.675781 " clip-rule="nonzero"/></clipPath><clipPath id="2f3d294722"><path d="M 198.925781 138.988281 L 262.886719 90.523438 L 276.929688 109.054688 L 212.964844 157.519531 Z M 198.925781 138.988281 " clip-rule="nonzero"/></clipPath><clipPath id="9f86b8e87b"><path d="M 258 97 L 270 97 L 270 109 L 258 109 Z M 258 97 " clip-rule="nonzero"/></clipPath><clipPath id="4f60cc88b7"><path d="M 220.796875 122.417969 L 263.238281 90.257812 L 276.828125 108.191406 L 234.386719 140.351562 Z M 220.796875 122.417969 " clip-rule="nonzero"/></clipPath><clipPath id="aa3359d02c"><path d="M 220.457031 122.675781 L 262.902344 90.515625 L 276.941406 109.046875 L 234.5 141.207031 Z M 220.457031 122.675781 " clip-rule="nonzero"/></clipPath><clipPath id="cfc029f2ef"><path d="M 198.925781 138.988281 L 262.886719 90.523438 L 276.929688 109.054688 L 212.964844 157.519531 Z M 198.925781 138.988281 " clip-rule="nonzero"/></clipPath><clipPath id="086e181d2d"><path d="M 252 99 L 263 99 L 263 110 L 252 110 Z M 252 99 " clip-rule="nonzero"/></clipPath><clipPath id="42ebdab550"><path d="M 220.796875 122.417969 L 263.238281 90.257812 L 276.828125 108.191406 L 234.386719 140.351562 Z M 220.796875 122.417969 " clip-rule="nonzero"/></clipPath><clipPath id="4e26bb4e80"><path d="M 220.457031 122.675781 L 262.902344 90.515625 L 276.941406 109.046875 L 234.5 141.207031 Z M 220.457031 122.675781 " clip-rule="nonzero"/></clipPath><clipPath id="665e809b6b"><path d="M 198.925781 138.988281 L 262.886719 90.523438 L 276.929688 109.054688 L 212.964844 157.519531 Z M 198.925781 138.988281 " clip-rule="nonzero"/></clipPath><clipPath id="d723e834ad"><path d="M 252 95 L 264 95 L 264 107 L 252 107 Z M 252 95 " clip-rule="nonzero"/></clipPath><clipPath id="c520c5de1f"><path d="M 220.796875 122.417969 L 263.238281 90.257812 L 276.828125 108.191406 L 234.386719 140.351562 Z M 220.796875 122.417969 " clip-rule="nonzero"/></clipPath><clipPath id="25d931971a"><path d="M 220.457031 122.675781 L 262.902344 90.515625 L 276.941406 109.046875 L 234.5 141.207031 Z M 220.457031 122.675781 " clip-rule="nonzero"/></clipPath><clipPath id="5647417e59"><path d="M 198.925781 138.988281 L 262.886719 90.523438 L 276.929688 109.054688 L 212.964844 157.519531 Z M 198.925781 138.988281 " clip-rule="nonzero"/></clipPath><clipPath id="ed8dbdd2a7"><path d="M 236 117 L 252 117 L 252 129 L 236 129 Z M 236 117 " clip-rule="nonzero"/></clipPath><clipPath id="a8372a99e8"><path d="M 220.796875 122.417969 L 263.238281 90.257812 L 276.828125 108.191406 L 234.386719 140.351562 Z M 220.796875 122.417969 " clip-rule="nonzero"/></clipPath><clipPath id="1313df9040"><path d="M 220.457031 122.675781 L 262.902344 90.515625 L 276.941406 109.046875 L 234.5 141.207031 Z M 220.457031 122.675781 " clip-rule="nonzero"/></clipPath><clipPath id="3bec2b7303"><path d="M 198.925781 138.988281 L 262.886719 90.523438 L 276.929688 109.054688 L 212.964844 157.519531 Z M 198.925781 138.988281 " clip-rule="nonzero"/></clipPath><clipPath id="094cdaedfe"><path d="M 242 115 L 253 115 L 253 127 L 242 127 Z M 242 115 " clip-rule="nonzero"/></clipPath><clipPath id="149eca5c79"><path d="M 220.796875 122.417969 L 263.238281 90.257812 L 276.828125 108.191406 L 234.386719 140.351562 Z M 220.796875 122.417969 " clip-rule="nonzero"/></clipPath><clipPath id="8c9171ee7a"><path d="M 220.457031 122.675781 L 262.902344 90.515625 L 276.941406 109.046875 L 234.5 141.207031 Z M 220.457031 122.675781 " clip-rule="nonzero"/></clipPath><clipPath id="cedbc727c1"><path d="M 198.925781 138.988281 L 262.886719 90.523438 L 276.929688 109.054688 L 212.964844 157.519531 Z M 198.925781 138.988281 " clip-rule="nonzero"/></clipPath></defs><g clip-path="url(#a092f75026)"><path fill="#000000" d="M 231.230469 115.425781 L 245.488281 132.320312 L 211.492188 160.953125 L 194.523438 175.246094 L 173.003906 193.367188 C 169.8125 197.671875 168.183594 202.628906 168.183594 207.671875 C 168.183594 211.253906 169.007812 214.871094 170.675781 218.335938 C 174.832031 226.980469 183.042969 232.136719 192.640625 232.136719 C 196.90625 232.136719 200.574219 231.128906 203.699219 229.539062 C 209.375 226.652344 213.214844 221.789062 215.15625 217.105469 C 217.324219 211.878906 218.03125 204.816406 215.089844 198.109375 C 215.019531 197.953125 214.917969 197.765625 214.777344 197.542969 C 208.917969 188.171875 210.886719 175.914062 219.34375 168.792969 L 225.511719 174.953125 C 239.0625 188.484375 242.925781 207.878906 235.589844 225.566406 C 229.71875 239.734375 217.984375 249.582031 203.699219 252.949219 C 200.144531 253.785156 196.453125 254.238281 192.640625 254.238281 C 174.605469 254.238281 158.550781 244.152344 150.742188 227.914062 C 142.925781 211.671875 145.074219 192.847656 156.34375 178.785156 L 157.847656 177.242188 L 178.828125 159.570312 L 170.976562 151.726562 L 150.914062 131.683594 L 166.554688 116.0625 L 187.945312 137.433594 L 195.792969 145.273438 Z M 231.230469 115.425781 " fill-opacity="1" fill-rule="nonzero"/></g><g clip-path="url(#dba3bf236d)"><g clip-path="url(#4c11dbf090)"><g clip-path="url(#2455593b55)"><path fill="#ff3131" d="M 173.089844 208.988281 C 173.089844 203.6875 175.515625 198.9375 178.988281 195.464844 C 182.460938 191.992188 187.214844 189.859375 192.515625 189.859375 C 197.816406 189.859375 202.554688 192.003906 206.027344 195.476562 C 209.5 198.949219 211.585938 203.6875 211.585938 208.988281 C 211.585938 214.289062 209.722656 219.25 206.25 222.734375 C 202.773438 226.21875 197.804688 228.339844 192.503906 228.339844 C 187.203125 228.339844 182.65625 225.78125 179.183594 222.308594 C 175.710938 218.835938 173.089844 214.289062 173.089844 208.988281 Z M 173.089844 208.988281 " fill-opacity="1" fill-rule="nonzero"/></g></g></g><g clip-path="url(#236f1aaf6e)"><g clip-path="url(#e9e75e58bd)"><g clip-path="url(#60148f46ca)"><path stroke-linecap="butt" transform="matrix(0.727397, 0.000000000000000045, -0.000000000000000045, 0.727397, 173.091087, 189.858722)" fill="none" stroke-linejoin="miter" d="M -0.00170881 26.470498 C -0.00170881 33.489319 2.790783 40.22352 7.752826 45.185563 C 12.714869 50.147606 19.449071 52.940098 26.467891 52.940098 C 33.486712 52.940098 40.220913 50.147606 45.182957 45.185563 C 50.15037 40.22352 52.937491 33.489319 52.937491 26.470498 C 52.937491 19.446307 50.15037 12.717476 45.182957 7.750063 C 40.220913 2.788019 33.486712 0.000897814 26.467891 0.000897814 C 19.449071 0.000897814 12.714869 2.788019 7.752826 7.750063 C 2.790783 12.717476 -0.00170881 19.446307 -0.00170881 26.470498 Z M -0.00170881 26.470498 " stroke="#000000" stroke-width="2.062148" stroke-opacity="1" stroke-miterlimit="4"/></g></g></g><g clip-path="url(#8ee7a789bf)"><g clip-path="url(#069826d841)"><g clip-path="url(#6b32534645)"><g clip-path="url(#7daa7d8300)"><path stroke-linecap="butt" transform="matrix(0.0248638, -0.0188395, 0.0188221, 0.0248407, 198.956711, 138.965952)" fill="none" stroke-linejoin="miter" d="M 0.0207432 425.022433 L 1380.061009 424.994604 L 2499.014785 424.935466 " stroke="#000000" stroke-width="10" stroke-opacity="1" stroke-miterlimit="10"/></g></g></g></g><g clip-path="url(#3b30dc9791)"><g clip-path="url(#9426cebd75)"><g clip-path="url(#97f99400a7)"><g clip-path="url(#9e487ca2b7)"><path stroke-linecap="butt" transform="matrix(0.0248638, -0.0188395, 0.0188221, 0.0248407, 198.956711, 138.965952)" fill="none" stroke-linejoin="miter" d="M 1002.021884 679.073679 L 792.952466 679.022579 L 715.492958 602.035141 " stroke="#000000" stroke-width="10" stroke-opacity="1" stroke-miterlimit="10"/></g></g></g></g><g clip-path="url(#0948e77ff9)"><g clip-path="url(#7581285de3)"><g clip-path="url(#0bb6c57586)"><g clip-path="url(#cac9d0813c)"><path stroke-linecap="butt" transform="matrix(0.0248638, -0.0188395, 0.0188221, 0.0248407, 198.956711, 138.965952)" fill="none" stroke-linejoin="miter" d="M 920.066321 512.974204 L 682.045429 512.981188 L 601.265915 602.049635 " stroke="#000000" stroke-width="10" stroke-opacity="1" stroke-miterlimit="10"/></g></g></g></g><g clip-path="url(#3ad039ee8f)"><g clip-path="url(#c3a9014bfa)"><g clip-path="url(#f932323250)"><g clip-path="url(#54dae33f41)"><path stroke-linecap="butt" transform="matrix(0.0248638, -0.0188395, 0.0188221, 0.0248407, 198.956711, 138.965952)" fill="none" stroke-linejoin="miter" d="M 572.40814 424.956121 L 676.03078 320.032072 L 1151.97276 319.942412 " stroke="#000000" stroke-width="10" stroke-opacity="1" stroke-miterlimit="10"/></g></g></g></g><g clip-path="url(#e7c4bc3a9d)"><g clip-path="url(#c7ed020d0a)"><g clip-path="url(#df32f17cef)"><g clip-path="url(#854455e180)"><path stroke-linecap="butt" transform="matrix(0.0248638, -0.0188395, 0.0188221, 0.0248407, 198.956711, 138.965952)" fill="none" stroke-linejoin="miter" d="M 1320.953907 37.987363 L 1082.933014 37.994346 L 807.688591 320.028143 " stroke="#000000" stroke-width="10" stroke-opacity="1" stroke-miterlimit="10"/></g></g></g></g><g clip-path="url(#56e061e19b)"><g clip-path="url(#6f2c4c3ad5)"><g clip-path="url(#9b2997796b)"><g clip-path="url(#5cfa17bf62)"><path stroke-linecap="butt" transform="matrix(0.0248638, -0.0188395, 0.0188221, 0.0248407, 198.956711, 138.965952)" fill="none" stroke-linejoin="miter" d="M 1570.52802 117.977502 L 1285.498791 118.028921 L 1189.498734 215.996643 " stroke="#000000" stroke-width="10" stroke-opacity="1" stroke-miterlimit="10"/></g></g></g></g><g clip-path="url(#14fd983f01)"><g clip-path="url(#fe15663d0e)"><g clip-path="url(#f496e948ac)"><g clip-path="url(#34897204b5)"><path stroke-linecap="butt" transform="matrix(0.0248638, -0.0188395, 0.0188221, 0.0248407, 198.956711, 138.965952)" fill="none" stroke-linejoin="miter" d="M 1436.009679 215.9813 L 1049.976962 216.012012 L 950.69168 319.97977 " stroke="#000000" stroke-width="10" stroke-opacity="1" stroke-miterlimit="10"/></g></g></g></g><g clip-path="url(#c1eae2b8e3)"><g clip-path="url(#a3c8feba6a)"><g clip-path="url(#b130fd5194)"><g clip-path="url(#9311e5585d)"><path stroke-linecap="butt" transform="matrix(0.0248638, -0.0188395, 0.0188221, 0.0248407, 198.956711, 138.965952)" fill="none" stroke-linejoin="miter" d="M 1175.023377 425.013478 L 1411.995587 664.019997 L 1885.983667 664.020992 L 1954.938656 590.9877 L 2378.918084 590.015669 " stroke="#000000" stroke-width="10" stroke-opacity="1" stroke-miterlimit="10"/></g></g></g></g><g clip-path="url(#d92a6dc4fc)"><g clip-path="url(#683497561f)"><g clip-path="url(#16a2cfcb47)"><g clip-path="url(#ee31a1e5c5)"><path stroke-linecap="butt" transform="matrix(0.0248638, -0.0188395, 0.0188221, 0.0248407, 198.956711, 138.965952)" fill="none" stroke-linejoin="miter" d="M 2027.9993 502.984241 L 1890.004946 503.057261 L 1730.809597 663.959343 " stroke="#000000" stroke-width="10" stroke-opacity="1" stroke-miterlimit="10"/></g></g></g></g><g clip-path="url(#962386f661)"><g clip-path="url(#53d4ed02c3)"><g clip-path="url(#59f704606f)"><g clip-path="url(#b6181bbe28)"><path stroke-linecap="butt" transform="matrix(0.0248638, -0.0188395, 0.0188221, 0.0248407, 198.956711, 138.965952)" fill="none" stroke-linejoin="miter" d="M 2150.026941 679.032151 L 2052.955433 679.005723 L 1993.92207 741.007998 L 1702.00583 741.02553 L 1615.254748 664.067575 " stroke="#000000" stroke-width="10" stroke-opacity="1" stroke-miterlimit="10"/></g></g></g></g><g clip-path="url(#733f539b7a)"><g clip-path="url(#08b3033b18)"><g clip-path="url(#f9b0956d54)"><g clip-path="url(#93fb16f97f)"><path stroke-linecap="butt" transform="matrix(0.0248638, -0.0188395, 0.0188221, 0.0248407, 198.956711, 138.965952)" fill="none" stroke-linejoin="miter" d="M 2321.015645 335.069972 L 1853.013249 335.048294 L 1770.751603 425.036947 " stroke="#000000" stroke-width="10" stroke-opacity="1" stroke-miterlimit="10"/></g></g></g></g><g clip-path="url(#309b5ef63d)"><g clip-path="url(#a7bb51ef18)"><g clip-path="url(#5791652947)"><g clip-path="url(#f7745dc92d)"><path stroke-linecap="butt" transform="matrix(0.0248638, -0.0188395, 0.0188221, 0.0248407, 198.956711, 138.965952)" fill="none" stroke-linejoin="miter" d="M 2214.025639 166.967252 L 2093.011391 167.023553 L 1927.545448 334.963817 " stroke="#000000" stroke-width="10" stroke-opacity="1" stroke-miterlimit="10"/></g></g></g></g><g clip-path="url(#2cfcd36abd)"><g clip-path="url(#f1147b5206)"><g clip-path="url(#65b2b42249)"><g clip-path="url(#8ef0684f0c)"><path stroke-linecap="butt" transform="matrix(0.0248638, -0.0188395, 0.0188221, 0.0248407, 198.956711, 138.965952)" fill="none" stroke-linejoin="miter" d="M 2129.96486 251.031121 L 2010.278419 250.993685 " stroke="#000000" stroke-width="10" stroke-opacity="1" stroke-miterlimit="10"/></g></g></g></g><g clip-path="url(#96735867ff)"><g clip-path="url(#26ca62028e)"><g clip-path="url(#9b32ed8b9b)"><g clip-path="url(#d518487c4d)"><path stroke-linecap="butt" transform="matrix(0.0248638, -0.0188395, 0.0188221, 0.0248407, 198.956711, 138.965952)" fill="none" stroke-linejoin="miter" d="M 1386.920429 38.011143 C 1387.074313 42.373646 1386.12726 46.530192 1384.454309 50.607964 C 1382.781359 54.685735 1380.409771 58.233651 1377.263922 61.35161 C 1374.293502 64.445365 1370.600262 66.833673 1366.634866 68.543819 C 1362.569665 70.178271 1358.383555 70.934766 1353.925288 71.013099 C 1349.642449 71.067228 1345.414131 70.219194 1341.415761 68.444795 C 1337.341767 66.770293 1333.797137 64.396506 1330.606444 61.347638 C 1327.591179 58.274566 1325.12946 54.6778 1323.496522 50.608829 C 1321.863584 46.539858 1320.932362 42.37407 1320.953907 37.987363 C 1320.975452 33.600655 1321.8227 29.368416 1323.49565 25.290644 C 1325.192782 21.388464 1327.639994 17.74065 1330.610414 14.646896 C 1333.756263 11.528937 1337.274074 9.164833 1341.339275 7.530381 C 1345.404476 5.895928 1349.66621 5.039536 1353.949048 4.985407 C 1358.331692 5.006972 1362.56001 5.855005 1366.634004 7.529507 C 1370.707998 9.204008 1374.252627 11.577795 1377.267892 14.650868 C 1380.382962 17.799634 1382.744876 21.320706 1384.553243 25.365473 C 1386.186181 29.434443 1386.941974 33.624436 1386.920429 38.011143 Z M 1386.920429 38.011143 " stroke="#000000" stroke-width="10" stroke-opacity="1" stroke-miterlimit="10"/></g></g></g></g><g clip-path="url(#1ac9f870fd)"><g clip-path="url(#6a7551d9da)"><g clip-path="url(#7a45c99638)"><g clip-path="url(#a91f9b67a6)"><path stroke-linecap="butt" transform="matrix(0.0248638, -0.0188395, 0.0188221, 0.0248407, 198.956711, 138.965952)" fill="none" stroke-linejoin="miter" d="M 1636.043879 117.973997 C 1636.022334 122.360704 1635.175086 126.592944 1633.502136 130.670715 C 1631.829185 134.748487 1629.457597 138.296403 1626.387372 141.314464 C 1623.241523 144.432423 1619.723712 146.796527 1615.582887 148.530877 C 1611.517686 150.165329 1607.431381 150.997518 1603.048737 150.975953 C 1598.666094 150.954388 1594.437775 150.106355 1590.363781 148.431853 C 1586.389593 146.833045 1582.745158 144.383565 1579.729894 141.310492 C 1576.5392 138.261624 1574.177287 134.740552 1572.544349 130.671581 C 1570.811605 126.526916 1569.980188 122.436822 1570.001733 118.050115 C 1570.023278 113.663407 1570.870526 109.431168 1572.543476 105.353396 C 1574.216427 101.275625 1576.588015 97.727708 1579.65824 94.709647 C 1582.804089 91.591688 1586.3219 89.227585 1590.387101 87.593133 C 1594.428121 85.783089 1598.614231 85.026594 1602.996875 85.048159 C 1607.379518 85.069724 1611.508031 85.842063 1615.582025 87.516565 C 1619.656019 89.191067 1623.200648 91.564854 1626.315719 94.713619 C 1629.406607 97.686794 1631.792702 101.383458 1633.501264 105.352531 C 1635.134202 109.421502 1635.989801 113.687188 1636.043879 117.973997 Z M 1636.043879 117.973997 " stroke="#000000" stroke-width="10" stroke-opacity="1" stroke-miterlimit="10"/></g></g></g></g><g clip-path="url(#d2aabb9c59)"><g clip-path="url(#f78281284c)"><g clip-path="url(#40900ba43d)"><g clip-path="url(#6134122aa8)"><path stroke-linecap="butt" transform="matrix(0.0248638, -0.0188395, 0.0188221, 0.0248407, 198.956711, 138.965952)" fill="none" stroke-linejoin="miter" d="M 1501.976202 216.005081 C 1501.954657 220.391788 1501.183033 224.52413 1499.510082 228.601901 C 1497.837132 232.679673 1495.465544 236.227589 1492.319695 239.345548 C 1489.249469 242.363609 1485.656035 244.82761 1481.590834 246.462063 C 1477.625438 248.172209 1473.363704 249.028601 1468.98106 249.007036 C 1464.598417 248.985472 1460.370098 248.137438 1456.39591 246.53863 C 1452.321916 244.864129 1448.777287 242.490342 1445.662217 239.341576 C 1442.547146 236.19281 1440.185233 232.671737 1438.552295 228.602767 C 1436.843733 224.633694 1435.988134 220.368008 1436.009679 215.9813 C 1436.031225 211.594593 1436.802849 207.462251 1438.475799 203.38448 C 1440.14875 199.306708 1442.520338 195.758792 1445.666187 192.640833 C 1448.736412 189.622772 1452.329846 187.158771 1456.395048 185.524318 C 1460.360444 183.814172 1464.622178 182.95778 1469.004821 182.979345 C 1473.387465 183.00091 1477.615783 183.848943 1481.689777 185.523444 C 1485.663965 187.122252 1489.3084 189.571733 1492.323665 192.644805 C 1495.438735 195.793571 1497.800648 199.314644 1499.433587 203.383615 C 1501.142148 207.352687 1501.997747 211.618373 1501.976202 216.005081 Z M 1501.976202 216.005081 " stroke="#000000" stroke-width="10" stroke-opacity="1" stroke-miterlimit="10"/></g></g></g></g><g clip-path="url(#07eb401821)"><g clip-path="url(#3a89a279f3)"><g clip-path="url(#f7754a7e68)"><g clip-path="url(#58f29c301f)"><path stroke-linecap="butt" transform="matrix(0.0248638, -0.0188395, 0.0188221, 0.0248407, 198.956711, 138.965952)" fill="none" stroke-linejoin="miter" d="M 1218.039088 320.041886 C 1218.017542 324.428593 1217.170295 328.660833 1215.473162 332.563013 C 1213.800212 336.640784 1211.428624 340.188701 1208.282775 343.30666 C 1205.236731 346.500312 1201.619115 348.788722 1197.653719 350.498868 C 1193.588518 352.13332 1189.326784 352.989713 1185.043946 353.043842 C 1180.661302 353.022277 1176.432984 352.174243 1172.35899 350.499742 C 1168.284996 348.82524 1164.740367 346.451453 1161.625297 343.302687 C 1158.610032 340.229615 1156.148313 336.632849 1154.515375 332.563878 C 1152.806814 328.594805 1152.05102 324.404813 1151.97276 319.942412 C 1151.994305 315.555705 1152.765929 311.423363 1154.538685 307.421285 C 1156.211635 303.343514 1158.583223 299.795597 1161.729072 296.677638 C 1164.699492 293.583884 1168.392732 291.195576 1172.358128 289.48543 C 1176.423329 287.850978 1180.685063 286.994585 1184.967901 286.940456 C 1189.350545 286.962021 1193.578863 287.810054 1197.652857 289.484556 C 1201.726851 291.159058 1205.27148 293.532845 1208.386551 296.68161 C 1211.401815 299.754683 1213.863534 303.351449 1215.496472 307.42042 C 1217.205034 311.389493 1217.960827 315.579485 1218.039088 320.041886 Z M 1218.039088 320.041886 " stroke="#000000" stroke-width="10" stroke-opacity="1" stroke-miterlimit="10"/></g></g></g></g><g clip-path="url(#a7839c5ef0)"><g clip-path="url(#55731a5732)"><g clip-path="url(#62a5445708)"><g clip-path="url(#41561affeb)"><path stroke-linecap="butt" transform="matrix(0.0248638, -0.0188395, 0.0188221, 0.0248407, 198.956711, 138.965952)" fill="none" stroke-linejoin="miter" d="M 986.017896 510.942376 C 985.996351 515.329083 985.149103 519.561323 983.476152 523.639094 C 981.803202 527.716866 979.431614 531.264782 976.361388 534.282843 C 973.215539 537.400802 969.697729 539.764905 965.556904 541.499256 C 961.591508 543.209402 957.405397 543.965896 953.022754 543.944331 C 948.564487 544.022664 944.336168 543.174631 940.437603 541.475925 C 936.36361 539.801424 932.81898 537.427637 929.628287 534.378769 C 926.513216 531.230003 924.151303 527.70893 922.518365 523.639959 C 920.885427 519.570989 919.954204 515.405201 919.97575 511.018493 C 919.997295 506.631786 920.844542 502.399546 922.517493 498.321775 C 924.11482 494.343901 926.562031 490.696087 929.632257 487.678026 C 932.778106 484.560067 936.295917 482.195964 940.361118 480.561511 C 944.402137 478.751467 948.588248 477.994973 952.970891 478.016537 C 957.353535 478.038102 961.581853 478.886136 965.655847 480.560637 C 969.630036 482.159445 973.27447 484.608926 976.289735 487.681998 C 979.480429 490.730866 981.766719 494.351837 983.47528 498.320909 C 985.108218 502.38988 985.963817 506.655566 986.017896 510.942376 Z M 986.017896 510.942376 " stroke="#000000" stroke-width="10" stroke-opacity="1" stroke-miterlimit="10"/></g></g></g></g><g clip-path="url(#10e6eda58b)"><g clip-path="url(#ef8d7b0f43)"><g clip-path="url(#365e61fc8f)"><g clip-path="url(#2d25fe16ac)"><path stroke-linecap="butt" transform="matrix(0.0248638, -0.0188395, 0.0188221, 0.0248407, 198.956711, 138.965952)" fill="none" stroke-linejoin="miter" d="M 868.062855 602.008773 C 868.04131 606.395481 867.194062 610.62772 865.421306 614.629798 C 863.823979 618.607672 861.376768 622.255486 858.306542 625.273547 C 855.260498 628.467199 851.642882 630.755609 847.677486 632.465755 C 843.536662 634.200105 839.350551 634.9566 835.067713 635.010729 C 830.685069 634.989164 826.456751 634.141131 822.382757 632.466629 C 818.308763 630.792128 814.764134 628.418341 811.649064 625.269575 C 808.558175 622.2964 806.17208 618.599736 804.463519 614.630663 C 802.830581 610.561692 802.074787 606.3717 801.920903 602.009197 C 801.942448 597.62249 802.789696 593.39025 804.562452 589.388172 C 806.235402 585.310401 808.60699 581.762484 811.677216 578.744423 C 814.723259 575.550771 818.340876 573.262361 822.381895 571.452317 C 826.447096 569.817865 830.633207 569.06137 834.916045 569.007241 C 839.374312 568.928908 843.60263 569.776942 847.601001 571.551341 C 851.674995 573.225843 855.219624 575.59963 858.410318 578.648498 C 861.425582 581.72157 863.887301 585.318336 865.520239 589.387307 C 867.153177 593.456278 867.984594 597.546372 868.062855 602.008773 Z M 868.062855 602.008773 " stroke="#000000" stroke-width="10" stroke-opacity="1" stroke-miterlimit="10"/></g></g></g></g><g clip-path="url(#c0d4182477)"><g clip-path="url(#7f15301bb3)"><g clip-path="url(#464a0273b2)"><g clip-path="url(#346507a1b3)"><path stroke-linecap="butt" transform="matrix(0.0248638, -0.0188395, 0.0188221, 0.0248407, 198.956711, 138.965952)" fill="none" stroke-linejoin="miter" d="M 1068.06403 678.997561 C 1068.042485 683.384269 1067.195237 687.616508 1065.422481 691.618586 C 1063.749531 695.696358 1061.377943 699.244274 1058.407522 702.338028 C 1055.261673 705.455987 1051.743863 707.820091 1047.678661 709.454543 C 1043.537837 711.188893 1039.351726 711.945388 1035.068888 711.999517 C 1030.686244 711.977952 1026.457926 711.129919 1022.383932 709.455417 C 1018.309938 707.780916 1014.765309 705.407129 1011.650239 702.258363 C 1008.55935 699.285188 1006.173255 695.588524 1004.464694 691.619451 C 1002.831756 687.550481 1002.075962 683.360488 1002.021884 679.073679 C 1001.943623 674.611278 1002.790871 670.379038 1004.563627 666.37696 C 1006.236577 662.299189 1008.608165 658.751273 1011.678391 655.733212 C 1014.724434 652.539559 1018.342051 650.251149 1022.307446 648.541003 C 1026.448271 646.806653 1030.634382 646.050158 1035.017025 646.071723 C 1039.299863 646.017594 1043.528182 646.865628 1047.602176 648.540129 C 1051.67617 650.214631 1055.220799 652.588418 1058.335869 655.737184 C 1061.426758 658.710358 1063.888476 662.307124 1065.521414 666.376095 C 1067.154352 670.445066 1068.085575 674.610854 1068.06403 678.997561 Z M 1068.06403 678.997561 " stroke="#000000" stroke-width="10" stroke-opacity="1" stroke-miterlimit="10"/></g></g></g></g><g clip-path="url(#6c65d90011)"><g clip-path="url(#bffcbc6bdf)"><g clip-path="url(#3aa2273a1b)"><g clip-path="url(#dce4b59f5d)"><path stroke-linecap="butt" transform="matrix(0.0248638, -0.0188395, 0.0188221, 0.0248407, 198.956711, 138.965952)" fill="none" stroke-linejoin="miter" d="M 2093.965823 503.008021 C 2093.944278 507.394729 2093.172653 511.52707 2091.499703 515.604842 C 2089.826752 519.682613 2087.455164 523.23053 2084.309315 526.348489 C 2081.23909 529.36655 2077.645656 531.830551 2073.580454 533.465003 C 2069.615059 535.175149 2065.353324 536.031542 2060.970681 536.009977 C 2056.588037 535.988412 2052.359719 535.140379 2048.38553 533.541571 C 2044.311537 531.867069 2040.766907 529.493282 2037.651837 526.344517 C 2034.536767 523.195751 2032.174854 519.674678 2030.541916 515.605707 C 2028.833354 511.636634 2027.977755 507.370948 2027.9993 502.984241 C 2028.020845 498.597534 2028.868093 494.365294 2030.46542 490.387421 C 2032.13837 486.309649 2034.509958 482.761733 2037.655807 479.643774 C 2040.801656 476.525815 2044.319467 474.161711 2048.384668 472.527259 C 2052.44987 470.892807 2056.611798 469.96072 2060.994442 469.982285 C 2065.377085 470.00385 2069.605404 470.851884 2073.679398 472.526385 C 2077.653586 474.125193 2081.298021 476.574674 2084.313286 479.647746 C 2087.428356 482.796512 2089.790269 486.317584 2091.423207 490.386555 C 2093.131769 494.355628 2093.987368 498.621314 2093.965823 503.008021 Z M 2093.965823 503.008021 " stroke="#000000" stroke-width="10" stroke-opacity="1" stroke-miterlimit="10"/></g></g></g></g><g clip-path="url(#133c52a97e)"><g clip-path="url(#0296f996b9)"><g clip-path="url(#ad8dd590b6)"><g clip-path="url(#cc9051881a)"><path stroke-linecap="butt" transform="matrix(0.0248638, -0.0188395, 0.0188221, 0.0248407, 198.956711, 138.965952)" fill="none" stroke-linejoin="miter" d="M 2215.993464 679.055931 C 2216.047542 683.342741 2215.200294 687.57498 2213.527344 691.652752 C 2211.754588 695.65483 2209.383 699.202746 2206.336957 702.396399 C 2203.266731 705.41446 2199.673297 707.878461 2195.608096 709.512913 C 2191.542894 711.147366 2187.380966 712.079452 2182.998322 712.057887 C 2178.615679 712.036322 2174.38736 711.188289 2170.313366 709.513787 C 2166.314996 707.739388 2162.770367 705.365601 2159.679478 702.392426 C 2156.564408 699.243661 2154.202495 695.722588 2152.569557 691.653617 C 2150.836813 687.508953 2150.005396 683.418858 2150.026941 679.032151 C 2150.048486 674.645444 2150.895734 670.413204 2152.493061 666.435331 C 2154.166011 662.357559 2156.537599 658.809643 2159.683448 655.691684 C 2162.829297 652.573725 2166.347108 650.209621 2170.312504 648.499475 C 2174.377705 646.865023 2178.639439 646.00863 2183.022083 646.030195 C 2187.404726 646.05176 2191.53324 646.8241 2195.607233 648.498601 C 2199.681227 650.173103 2203.225856 652.54689 2206.340927 655.695656 C 2209.356192 658.768728 2211.81791 662.365494 2213.526472 666.334567 C 2215.15941 670.403538 2216.015009 674.669224 2215.993464 679.055931 Z M 2215.993464 679.055931 " stroke="#000000" stroke-width="10" stroke-opacity="1" stroke-miterlimit="10"/></g></g></g></g><g clip-path="url(#91d6462107)"><g clip-path="url(#c88ec819e9)"><g clip-path="url(#f8a15d61d4)"><g clip-path="url(#a95e11c5a0)"><path stroke-linecap="butt" transform="matrix(0.0248638, -0.0188395, 0.0188221, 0.0248407, 198.956711, 138.965952)" fill="none" stroke-linejoin="miter" d="M 2444.999802 586.98178 C 2444.978257 591.368487 2444.131009 595.600727 2442.458058 599.678498 C 2440.860732 603.656372 2438.41352 607.304186 2435.343295 610.322247 C 2432.197446 613.440206 2428.679635 615.80431 2424.614434 617.438762 C 2420.649038 619.148908 2416.387304 620.005301 2412.00466 619.983736 C 2407.622017 619.962171 2403.393698 619.114138 2399.41951 617.51533 C 2395.345516 615.840828 2391.800887 613.467041 2388.685816 610.318275 C 2385.570746 607.169509 2383.208833 603.648437 2381.500271 599.679364 C 2379.867333 595.610393 2379.011734 591.344707 2379.033279 586.958 C 2378.979201 582.67119 2379.826449 578.438951 2381.499399 574.361179 C 2383.172349 570.283408 2385.543937 566.735491 2388.689786 563.617532 C 2391.760012 560.599472 2395.353446 558.13547 2399.418647 556.501018 C 2403.384043 554.790872 2407.570154 554.034377 2412.028421 553.956044 C 2416.411064 553.977609 2420.639383 554.825642 2424.713377 556.500144 C 2428.611942 558.19885 2432.256376 560.64833 2435.347265 563.621505 C 2438.462335 566.770271 2440.824248 570.291343 2442.457186 574.360314 C 2444.090124 578.429285 2445.021347 582.595073 2444.999802 586.98178 Z M 2444.999802 586.98178 " stroke="#000000" stroke-width="10" stroke-opacity="1" stroke-miterlimit="10"/></g></g></g></g><g clip-path="url(#ae6904e044)"><g clip-path="url(#7082d7880f)"><g clip-path="url(#307cc36648)"><g clip-path="url(#2f3d294722)"><path stroke-linecap="butt" transform="matrix(0.0248638, -0.0188395, 0.0188221, 0.0248407, 198.956711, 138.965952)" fill="none" stroke-linejoin="miter" d="M 2564.975593 421.02362 C 2564.954048 425.410328 2564.182424 429.542669 2562.509473 433.620441 C 2560.836523 437.698212 2558.464935 441.246128 2555.319086 444.364087 C 2552.24886 447.382148 2548.655426 449.84615 2544.590225 451.480602 C 2540.624829 453.190748 2536.363095 454.047141 2531.980451 454.025576 C 2527.597808 454.004011 2523.369489 453.155978 2519.395301 451.55717 C 2515.321307 449.882668 2511.776678 447.508881 2508.661608 444.360115 C 2505.546537 441.211349 2503.184624 437.690277 2501.551686 433.621306 C 2499.843125 429.652233 2498.987525 425.386547 2499.009071 420.99984 C 2499.030616 416.613132 2499.877863 412.380893 2501.47519 408.403019 C 2503.148141 404.325248 2505.519729 400.777331 2508.665578 397.659373 C 2511.811427 394.541414 2515.329238 392.17731 2519.394439 390.542858 C 2523.359835 388.832712 2527.621569 387.976319 2532.004212 387.997884 C 2536.386856 388.019449 2540.615174 388.867482 2544.589363 390.46629 C 2548.663357 392.140792 2552.207986 394.514579 2555.323056 397.663345 C 2558.438126 400.812111 2560.80004 404.333183 2562.432978 408.402154 C 2564.141539 412.371227 2564.997138 416.636913 2564.975593 421.02362 Z M 2564.975593 421.02362 " stroke="#000000" stroke-width="10" stroke-opacity="1" stroke-miterlimit="10"/></g></g></g></g><g clip-path="url(#9f86b8e87b)"><g clip-path="url(#4f60cc88b7)"><g clip-path="url(#aa3359d02c)"><g clip-path="url(#cfc029f2ef)"><path stroke-linecap="butt" transform="matrix(0.0248638, -0.0188395, 0.0188221, 0.0248407, 198.956711, 138.965952)" fill="none" stroke-linejoin="miter" d="M 2387.057791 334.993855 C 2387.036246 339.380562 2386.188998 343.612801 2384.516048 347.690573 C 2382.743292 351.692651 2380.371704 355.240567 2377.401284 358.334322 C 2374.255435 361.452281 2370.737624 363.816384 2366.672423 365.450837 C 2362.531598 367.185187 2358.345487 367.941682 2354.062649 367.99581 C 2349.680006 367.974245 2345.451687 367.126212 2341.377693 365.451711 C 2337.3037 363.777209 2333.75907 361.403422 2330.743805 358.33035 C 2327.553112 355.281482 2325.266822 351.660511 2323.458455 347.615745 C 2321.825517 343.546774 2321.069723 339.356782 2321.015645 335.069972 C 2320.937385 330.607571 2321.884438 326.451025 2323.557388 322.373254 C 2325.230339 318.295482 2327.601927 314.747566 2330.672152 311.729505 C 2333.718196 308.535852 2337.335812 306.247443 2341.301208 304.537297 C 2345.442032 302.802946 2349.628143 302.046452 2354.010787 302.068016 C 2358.293625 302.013888 2362.521943 302.861921 2366.595937 304.536423 C 2370.669931 306.210924 2374.21456 308.584711 2377.32963 311.733477 C 2380.420519 314.706652 2382.882237 318.303418 2384.515175 322.372388 C 2386.148113 326.441359 2387.079336 330.607147 2387.057791 334.993855 Z M 2387.057791 334.993855 " stroke="#000000" stroke-width="10" stroke-opacity="1" stroke-miterlimit="10"/></g></g></g></g><g clip-path="url(#086e181d2d)"><g clip-path="url(#42ebdab550)"><g clip-path="url(#4e26bb4e80)"><g clip-path="url(#665e809b6b)"><path stroke-linecap="butt" transform="matrix(0.0248638, -0.0188395, 0.0188221, 0.0248407, 198.956711, 138.965952)" fill="none" stroke-linejoin="miter" d="M 2196.007006 250.955003 C 2195.985461 255.341711 2195.138214 259.57395 2193.465263 263.651722 C 2191.792313 267.729493 2189.420725 271.27741 2186.350499 274.29547 C 2183.20465 277.413429 2179.686839 279.777533 2175.621638 281.411985 C 2171.580619 283.222029 2167.394508 283.978524 2163.011865 283.956959 C 2158.629221 283.935394 2154.400903 283.087361 2150.426714 281.488553 C 2146.35272 279.814051 2142.808091 277.440264 2139.693021 274.291498 C 2136.502327 271.24263 2134.216037 267.62166 2132.507476 263.652587 C 2130.874538 259.583616 2130.018939 255.31793 2129.96486 251.031121 C 2129.986405 246.644413 2130.833653 242.412174 2132.506604 238.334402 C 2134.179554 234.256631 2136.551142 230.708715 2139.621368 227.690654 C 2142.767217 224.572695 2146.285027 222.208591 2150.350229 220.574139 C 2154.391248 218.764095 2158.577359 218.0076 2162.960002 218.029165 C 2167.342646 218.05073 2171.570964 218.898763 2175.644958 220.573265 C 2179.619146 222.172073 2183.263581 224.621553 2186.278846 227.694626 C 2189.46954 230.743494 2191.831453 234.264566 2193.464391 238.333537 C 2195.097329 242.402508 2196.028552 246.568296 2196.007006 250.955003 Z M 2196.007006 250.955003 " stroke="#000000" stroke-width="10" stroke-opacity="1" stroke-miterlimit="10"/></g></g></g></g><g clip-path="url(#d723e834ad)"><g clip-path="url(#c520c5de1f)"><g clip-path="url(#25d931971a)"><g clip-path="url(#5647417e59)"><path stroke-linecap="butt" transform="matrix(0.0248638, -0.0188395, 0.0188221, 0.0248407, 198.956711, 138.965952)" fill="none" stroke-linejoin="miter" d="M 2279.992162 166.991032 C 2279.970617 171.37774 2279.123369 175.609979 2277.526042 179.587853 C 2275.853091 183.665624 2273.481504 187.213541 2270.335655 190.3315 C 2267.189806 193.449459 2263.671995 195.813562 2259.606794 197.448014 C 2255.641398 199.15816 2251.379664 200.014553 2246.99702 199.992988 C 2242.614377 199.971423 2238.386058 199.12339 2234.41187 197.524582 C 2230.337876 195.85008 2226.793246 193.476293 2223.678176 190.327528 C 2220.563106 187.178762 2218.201193 183.657689 2216.492631 179.688616 C 2214.859693 175.619645 2214.004094 171.353959 2214.025639 166.967252 C 2213.971561 162.680443 2214.818809 158.448203 2216.491759 154.370432 C 2218.164709 150.29266 2220.536297 146.744744 2223.682146 143.626785 C 2226.752372 140.608724 2230.345806 138.144722 2234.411007 136.51027 C 2238.376403 134.800124 2242.638137 133.943731 2247.020781 133.965296 C 2251.403424 133.986861 2255.631743 134.834894 2259.705737 136.509396 C 2263.604302 138.208102 2267.32436 140.557685 2270.339625 143.630757 C 2273.454695 146.779523 2275.816608 150.300595 2277.449546 154.369566 C 2279.158108 158.338639 2280.013707 162.604325 2279.992162 166.991032 Z M 2279.992162 166.991032 " stroke="#000000" stroke-width="10" stroke-opacity="1" stroke-miterlimit="10"/></g></g></g></g><g clip-path="url(#ed8dbdd2a7)"><g clip-path="url(#a8372a99e8)"><g clip-path="url(#1313df9040)"><g clip-path="url(#3bec2b7303)"><path stroke-linecap="butt" transform="matrix(0.0248638, -0.0188395, 0.0188221, 0.0248407, 198.956711, 138.965952)" fill="none" stroke-linejoin="miter" d="M 1553.969894 491.000775 L 1435.9863 490.996785 L 1372.197048 425.006044 " stroke="#000000" stroke-width="10" stroke-opacity="1" stroke-miterlimit="10"/></g></g></g></g><g clip-path="url(#094cdaedfe)"><g clip-path="url(#149eca5c79)"><g clip-path="url(#8c9171ee7a)"><g clip-path="url(#cedbc727c1)"><path stroke-linecap="butt" transform="matrix(0.0248638, -0.0188395, 0.0188221, 0.0248407, 198.956711, 138.965952)" fill="none" stroke-linejoin="miter" d="M 1614.939992 488.493219 C 1615.023967 496.891247 1612.083443 504.096219 1606.018616 510.032443 C 1600.053594 516.044361 1592.951582 518.992448 1584.46153 519.000808 C 1576.146906 518.984963 1568.948608 516.041713 1562.94226 510.07116 C 1556.935912 504.100607 1553.990556 496.99201 1553.982205 488.494085 C 1554.073659 480.071853 1557.014183 472.86688 1562.903581 466.954861 C 1568.868604 460.942943 1576.07042 458.070549 1584.460668 457.986496 C 1592.95072 457.978137 1600.073394 461.021285 1606.079742 466.991838 C 1611.986285 472.886697 1615.031446 480.070988 1614.939992 488.493219 Z M 1614.939992 488.493219 " stroke="#000000" stroke-width="10" stroke-opacity="1" stroke-miterlimit="10"/></g></g></g></g></svg>